HIERARCHY
ROOT Hips
{
	OFFSET	0.00	0.00	0.00
	CHANNELS 6 Xposition Yposition Zposition Zrotation Xrotation Yrotation
	JOINT LeftUpLeg
	{
		OFFSET	 0.126116	-0.014019	-0.065224
		CHANNELS 3 Zrotation Xrotation Yrotation
		JOINT LeftLeg
		{
			OFFSET	 0.000000	 0.000000	 0.569914
			CHANNELS 3 Zrotation Xrotation Yrotation
			JOINT LeftFoot
			{
				OFFSET	 0.000000	 0.000000	 0.544423
				CHANNELS 3 Zrotation Xrotation Yrotation
				JOINT LeftToeBase
				{
					OFFSET	 0.000000	 0.000000	 0.207117
					CHANNELS 3 Zrotation Xrotation Yrotation
					End Site
					{
						OFFSET	 0.000000	 0.000000	 0.207117
					}
				}
			}
		}
	}
	JOINT RightUpLeg
	{
		OFFSET	-0.124023	-0.008373	-0.065224
		CHANNELS 3 Zrotation Xrotation Yrotation
		JOINT RightLeg
		{
			OFFSET	 0.000000	 0.000000	 0.570047
			CHANNELS 3 Zrotation Xrotation Yrotation
			JOINT RightFoot
			{
				OFFSET	 0.000000	 0.000000	 0.544354
				CHANNELS 3 Zrotation Xrotation Yrotation
				JOINT RightToeBase
				{
					OFFSET	 0.000000	 0.000000	 0.207540
					CHANNELS 3 Zrotation Xrotation Yrotation
					End Site
					{
						OFFSET	 0.000000	 0.000000	 0.207540
					}
				}
			}
		}
	}
	JOINT Spine
	{
		OFFSET	 0.000184	-0.007763	 0.117403
		CHANNELS 3 Zrotation Xrotation Yrotation
		JOINT Spine1
		{
			OFFSET	 0.000000	 0.000000	 0.137269
			CHANNELS 3 Zrotation Xrotation Yrotation
			JOINT Spine2
			{
				OFFSET	 0.000000	 0.000000	 0.156879
				CHANNELS 3 Zrotation Xrotation Yrotation
				JOINT LeftShoulder
				{
					OFFSET	 0.080501	-0.002496	 0.160144
					CHANNELS 3 Zrotation Xrotation Yrotation
					JOINT LeftArm
					{
						OFFSET	 0.000000	 0.000000	 0.164363
						CHANNELS 3 Zrotation Xrotation Yrotation
						JOINT LeftForeArm
						{
							OFFSET	 0.000000	 0.000000	 0.364576
							CHANNELS 3 Zrotation Xrotation Yrotation
							JOINT LeftHand
							{
								OFFSET	 0.000000	 0.000000	 0.360812
								CHANNELS 3 Zrotation Xrotation Yrotation
								JOINT LeftHandIndex1
								{
									OFFSET	 0.000000	 0.000000	 0.086006
									CHANNELS 3 Zrotation Xrotation Yrotation
									JOINT LeftHandIndex2
									{
										OFFSET	 0.000000	 0.000000	 0.047236
										CHANNELS 3 Zrotation Xrotation Yrotation
										JOINT LeftHandIndex3
										{
											OFFSET	-0.004284	-0.000551	 0.038166
											CHANNELS 3 Zrotation Xrotation Yrotation
											End Site
											{
												OFFSET	-0.004284	-0.000551	 0.038166
											}
										}
									}
								}
							}
						}
					}
				}
				JOINT Neck
				{
					OFFSET	 0.000000	 0.000000	 0.176489
					CHANNELS 3 Zrotation Xrotation Yrotation
					JOINT Head
					{
						OFFSET	 0.000000	-0.001747	 0.077940
						CHANNELS 3 Zrotation Xrotation Yrotation
						End Site
						{
							OFFSET	 0.000000	-0.001747	 0.077940
						}
					}
				}
				JOINT RightShoulder
				{
					OFFSET	-0.080363	 0.000306	 0.159706
					CHANNELS 3 Zrotation Xrotation Yrotation
					JOINT RightArm
					{
						OFFSET	 0.000000	 0.000000	 0.164196
						CHANNELS 3 Zrotation Xrotation Yrotation
						JOINT RightForeArm
						{
							OFFSET	 0.000000	 0.000000	 0.365611
							CHANNELS 3 Zrotation Xrotation Yrotation
							JOINT RightHand
							{
								OFFSET	 0.000000	 0.000000	 0.360648
								CHANNELS 3 Zrotation Xrotation Yrotation
								JOINT RightHandIndex1
								{
									OFFSET	 0.000000	 0.000000	 0.069977
									CHANNELS 3 Zrotation Xrotation Yrotation
									JOINT RightHandIndex2
									{
										OFFSET	 0.000000	 0.000000	 0.052305
										CHANNELS 3 Zrotation Xrotation Yrotation
										JOINT RightHandIndex3
										{
											OFFSET	 0.009002	-0.000782	 0.042196
											CHANNELS 3 Zrotation Xrotation Yrotation
											End Site
											{
												OFFSET	 0.009002	-0.000782	 0.042196
											}
										}
									}
								}
							}
						}
					}
				}
			}
		}
	}
}
MOTION
Frames:    5
Frame Time: 0.03333334
 0.012003	 0.037898	 1.218692	-179.985100	 0.635636	 0.522324	-8.172309	-10.107020	-178.530500	-1.791976	-40.469910	-7.084485	-165.739700	 83.525610	 152.152600	-2.197703	 46.948570	-0.480524	-1.838228	-9.299686	-178.888000	 6.578372	-39.707360	 9.493824	-175.188600	 83.786130	-175.754300	 2.361780	 32.579550	 0.093490	-16.928770	 4.854735	 1.072026	-0.862914	 12.257900	-2.222587	 6.147550	-26.334680	 4.708118	-91.229300	 83.958340	 178.242600	 38.147980	 64.808530	-47.072430	 2.901814	 0.421597	-5.150802	 15.060180	-24.410520	-11.555720	-11.579240	 8.158998	-24.411830	-5.213937	-0.202400	 3.566957	-1.378229	 35.397820	-2.634230	-1.388857	 7.014020	 5.389877	-2.874740	-20.224120	-7.286054	 87.726620	 87.418820	-176.798600	-69.329320	 60.569310	 68.253110	-2.917535	 0.393719	 5.149876	-26.474480	-20.831860	 22.132770	-0.521200	 25.807330	-61.810150	 5.070519	-0.690904	-9.399550	-2.350882	 35.473990	 5.254307
 0.011991	 0.034917	 1.220894	-179.482900	 0.604086	 0.402391	-8.218596	-10.731280	-177.888400	-1.593175	-39.826730	-6.861761	-169.022000	 85.232030	 155.296300	-2.134923	 50.093780	-0.588948	-2.567533	-9.999364	-179.618100	 6.624035	-39.644770	 9.511838	-166.734200	 84.646290	 175.920900	 2.369709	 31.300940	 0.064323	-19.973500	 4.652443	 1.166314	-0.643122	 12.169060	-2.339858	 5.669141	-27.044810	 4.638207	-91.229280	 83.958370	 178.242600	 55.619440	 69.756810	-55.811320	 0.343028	-3.322584	-20.630950	 12.484450	-26.405170	-12.964790	-11.975360	 7.281212	-25.070020	-5.213937	-0.202400	 3.566957	-1.378229	 35.397820	-2.634230	-1.402729	 6.737484	 5.194814	-3.061013	-20.916630	-7.080110	 87.727130	 87.418960	-176.799100	-82.328840	 62.335500	 71.891100	 0.256197	-4.121740	 20.873980	-22.990060	-22.113450	 23.460170	-0.090039	 26.518500	-62.157710	 5.070519	-0.690904	-9.399550	-2.350882	 35.473990	 5.254307
 0.012322	 0.034286	 1.221353	-179.313400	 0.604542	 0.463737	-8.379476	-10.772520	-177.989800	-1.513987	-39.839090	-6.811767	-168.327200	 85.323420	 154.563900	-2.116280	 50.915200	-0.619362	-2.783838	-9.982275	-179.710900	 6.645494	-39.604590	 9.518167	-166.571700	 84.739730	 175.729100	 2.370763	 31.120000	 0.060241	-20.739190	 4.679775	 1.114210	-0.607448	 12.455090	-2.324973	 5.532454	-27.410710	 4.587650	-91.229260	 83.958270	 178.242600	 56.194890	 69.710630	-55.707070	-0.147907	-3.274156	-21.617050	 11.922010	-26.820620	-13.342890	-12.157950	 6.983160	-25.444320	-5.213937	-0.202400	 3.566957	-1.378229	 35.397820	-2.634230	-1.395312	 6.652718	 5.088901	-3.095546	-21.106210	-6.970219	 87.726730	 87.418890	-176.798700	-82.625340	 62.298840	 72.257840	 0.803997	-3.726598	 20.809720	-22.173360	-22.372630	 23.804450	-0.027255	 26.632750	-62.272470	 5.070519	-0.690904	-9.399550	-2.350882	 35.473990	 5.254307
 0.012392	 0.033505	 1.221750	-179.151900	 0.646185	 0.400950	-8.543056	-10.859980	-177.953300	-1.428162	-39.794800	-6.749478	-167.667400	 85.441170	 153.865200	-2.106448	 51.330880	-0.635130	-2.908092	-10.059360	-179.681200	 6.628900	-39.648560	 9.515814	-166.712900	 84.782330	 175.881600	 2.372029	 30.900490	 0.055303	-21.391530	 4.684015	 1.149088	-0.596357	 12.746380	-2.259887	 5.369802	-27.784220	 4.528017	-91.229200	 83.958370	 178.242500	 56.525780	 69.589780	-55.346330	-0.673326	-3.217023	-22.607810	 11.362310	-27.153420	-13.679280	-12.247640	 6.830660	-25.621270	-5.213937	-0.202400	 3.566957	-1.378229	 35.397820	-2.634230	-1.416869	 6.612855	 5.063290	-3.179873	-21.299790	-7.006125	 87.726850	 87.418960	-176.798800	-83.337490	 62.277960	 72.888630	 1.285023	-3.533009	 21.228330	-21.526600	-22.603610	 24.114340	-0.069866	 26.578550	-62.318570	 5.070519	-0.690904	-9.399550	-2.350882	 35.473990	 5.254307
 0.012397	 0.032597	 1.222127	-178.986700	 0.703264	 0.293567	-8.714422	-10.970800	-177.871600	-1.337239	-39.732510	-6.681475	-166.930900	 85.572250	 153.088900	-2.099241	 51.628670	-0.646577	-3.007706	-10.174770	-179.613600	 6.599513	-39.724240	 9.511173	-166.921300	 84.809750	 176.116300	 2.373371	 30.659480	 0.049916	-22.017950	 4.684089	 1.214507	-0.592791	 13.067790	-2.167839	 5.184954	-28.181520	 4.455787	-91.229300	 83.958310	 178.242600	 56.683950	 69.418240	-54.794490	-1.226028	-3.135766	-23.614180	 10.786170	-27.449460	-14.012130	-12.309950	 6.720101	-25.739860	-5.213937	-0.202400	 3.566957	-1.378229	 35.397820	-2.634230	-1.448859	 6.586326	 5.063276	-3.285394	-21.501870	-7.092975	 87.726700	 87.418820	-176.798700	-84.350250	 62.266770	 73.734450	 1.769150	-3.437558	 21.981880	-20.919340	-22.812960	 24.421340	-0.149085	 26.466470	-62.343790	 5.070519	-0.690904	-9.399550	-2.350882	 35.473990	 5.254307
